<mxfile host="app.diagrams.net" agent="Mozilla/5.0 (Windows NT 10.0; Win64; x64) AppleWebKit/537.36 (KHTML, like Gecko) Chrome/130.0.0.0 Safari/537.36" version="24.7.14">
  <diagram name="第 1 页" id="yQIq_TAa30lVAEhY_viH">
    <mxGraphModel dx="1434" dy="746" grid="1" gridSize="10" guides="1" tooltips="1" connect="1" arrows="1" fold="1" page="1" pageScale="1" pageWidth="827" pageHeight="1169" math="0" shadow="0">
      <root>
        <mxCell id="0" />
        <mxCell id="1" parent="0" />
        <mxCell id="Yx1r9xGc4Te5kbXB9CK3-17" style="edgeStyle=orthogonalEdgeStyle;rounded=0;orthogonalLoop=1;jettySize=auto;html=1;exitX=0.5;exitY=1;exitDx=0;exitDy=0;exitPerimeter=0;entryX=0.5;entryY=0;entryDx=0;entryDy=0;" edge="1" parent="1" source="Yx1r9xGc4Te5kbXB9CK3-1" target="Yx1r9xGc4Te5kbXB9CK3-2">
          <mxGeometry relative="1" as="geometry" />
        </mxCell>
        <mxCell id="Yx1r9xGc4Te5kbXB9CK3-1" value="三维底图流程" style="strokeWidth=2;html=1;shape=mxgraph.flowchart.start_1;whiteSpace=wrap;" vertex="1" parent="1">
          <mxGeometry x="310" y="50" width="100" height="60" as="geometry" />
        </mxCell>
        <mxCell id="Yx1r9xGc4Te5kbXB9CK3-18" style="edgeStyle=orthogonalEdgeStyle;rounded=0;orthogonalLoop=1;jettySize=auto;html=1;exitX=0.5;exitY=1;exitDx=0;exitDy=0;" edge="1" parent="1" source="Yx1r9xGc4Te5kbXB9CK3-2" target="Yx1r9xGc4Te5kbXB9CK3-3">
          <mxGeometry relative="1" as="geometry" />
        </mxCell>
        <mxCell id="Yx1r9xGc4Te5kbXB9CK3-2" value="安全防护-2d页面" style="rounded=1;whiteSpace=wrap;html=1;absoluteArcSize=1;arcSize=14;strokeWidth=2;" vertex="1" parent="1">
          <mxGeometry x="245" y="140" width="230" height="50" as="geometry" />
        </mxCell>
        <mxCell id="Yx1r9xGc4Te5kbXB9CK3-3" value="服务端判断当前客户是否有配置的三维底图模型" style="strokeWidth=2;html=1;shape=mxgraph.flowchart.decision;whiteSpace=wrap;" vertex="1" parent="1">
          <mxGeometry x="265" y="220" width="190" height="100" as="geometry" />
        </mxCell>
        <mxCell id="Yx1r9xGc4Te5kbXB9CK3-13" style="edgeStyle=orthogonalEdgeStyle;rounded=0;orthogonalLoop=1;jettySize=auto;html=1;exitX=0.5;exitY=1;exitDx=0;exitDy=0;entryX=0.5;entryY=0;entryDx=0;entryDy=0;" edge="1" parent="1" source="Yx1r9xGc4Te5kbXB9CK3-4" target="Yx1r9xGc4Te5kbXB9CK3-11">
          <mxGeometry relative="1" as="geometry" />
        </mxCell>
        <mxCell id="Yx1r9xGc4Te5kbXB9CK3-4" value="客户对应的三维模型URL" style="rounded=1;whiteSpace=wrap;html=1;absoluteArcSize=1;arcSize=14;strokeWidth=2;" vertex="1" parent="1">
          <mxGeometry x="105" y="370" width="140" height="40" as="geometry" />
        </mxCell>
        <mxCell id="Yx1r9xGc4Te5kbXB9CK3-15" style="edgeStyle=orthogonalEdgeStyle;rounded=0;orthogonalLoop=1;jettySize=auto;html=1;exitX=0.5;exitY=1;exitDx=0;exitDy=0;entryX=0.5;entryY=0;entryDx=0;entryDy=0;" edge="1" parent="1" source="Yx1r9xGc4Te5kbXB9CK3-5" target="Yx1r9xGc4Te5kbXB9CK3-11">
          <mxGeometry relative="1" as="geometry" />
        </mxCell>
        <mxCell id="Yx1r9xGc4Te5kbXB9CK3-5" value="部门配置的模型URL" style="rounded=1;whiteSpace=wrap;html=1;absoluteArcSize=1;arcSize=14;strokeWidth=2;" vertex="1" parent="1">
          <mxGeometry x="470" y="370" width="140" height="40" as="geometry" />
        </mxCell>
        <mxCell id="Yx1r9xGc4Te5kbXB9CK3-6" value="" style="endArrow=classic;html=1;rounded=0;entryX=0.5;entryY=0;entryDx=0;entryDy=0;exitX=0;exitY=0.5;exitDx=0;exitDy=0;exitPerimeter=0;" edge="1" parent="1" source="Yx1r9xGc4Te5kbXB9CK3-3" target="Yx1r9xGc4Te5kbXB9CK3-4">
          <mxGeometry width="50" height="50" relative="1" as="geometry">
            <mxPoint x="180" y="270" as="sourcePoint" />
            <mxPoint x="230" y="220" as="targetPoint" />
            <Array as="points">
              <mxPoint x="175" y="270" />
            </Array>
          </mxGeometry>
        </mxCell>
        <mxCell id="Yx1r9xGc4Te5kbXB9CK3-9" value="F" style="edgeLabel;html=1;align=center;verticalAlign=middle;resizable=0;points=[];" vertex="1" connectable="0" parent="Yx1r9xGc4Te5kbXB9CK3-6">
          <mxGeometry x="-0.4211" y="3" relative="1" as="geometry">
            <mxPoint as="offset" />
          </mxGeometry>
        </mxCell>
        <mxCell id="Yx1r9xGc4Te5kbXB9CK3-7" value="" style="endArrow=classic;html=1;rounded=0;entryX=0.5;entryY=0;entryDx=0;entryDy=0;" edge="1" parent="1" target="Yx1r9xGc4Te5kbXB9CK3-5">
          <mxGeometry width="50" height="50" relative="1" as="geometry">
            <mxPoint x="460" y="270" as="sourcePoint" />
            <mxPoint x="540" y="360" as="targetPoint" />
            <Array as="points">
              <mxPoint x="540" y="270" />
            </Array>
          </mxGeometry>
        </mxCell>
        <mxCell id="Yx1r9xGc4Te5kbXB9CK3-10" value="T" style="edgeLabel;html=1;align=center;verticalAlign=middle;resizable=0;points=[];" vertex="1" connectable="0" parent="Yx1r9xGc4Te5kbXB9CK3-7">
          <mxGeometry x="-0.5444" y="-1" relative="1" as="geometry">
            <mxPoint as="offset" />
          </mxGeometry>
        </mxCell>
        <mxCell id="Yx1r9xGc4Te5kbXB9CK3-16" style="edgeStyle=orthogonalEdgeStyle;rounded=0;orthogonalLoop=1;jettySize=auto;html=1;exitX=0.5;exitY=1;exitDx=0;exitDy=0;" edge="1" parent="1" source="Yx1r9xGc4Te5kbXB9CK3-11" target="Yx1r9xGc4Te5kbXB9CK3-12">
          <mxGeometry relative="1" as="geometry" />
        </mxCell>
        <mxCell id="Yx1r9xGc4Te5kbXB9CK3-11" value="单击3D按钮，进入三维页面" style="rounded=1;whiteSpace=wrap;html=1;absoluteArcSize=1;arcSize=14;strokeWidth=2;" vertex="1" parent="1">
          <mxGeometry x="240" y="470" width="230" height="50" as="geometry" />
        </mxCell>
        <mxCell id="Yx1r9xGc4Te5kbXB9CK3-12" value="渲染对应模型" style="rounded=1;whiteSpace=wrap;html=1;absoluteArcSize=1;arcSize=14;strokeWidth=2;" vertex="1" parent="1">
          <mxGeometry x="240" y="560" width="230" height="50" as="geometry" />
        </mxCell>
      </root>
    </mxGraphModel>
  </diagram>
</mxfile>
